<?xml version="1.0" encoding="UTF-8" standalone="no"?>
<!-- Created with Inkscape (http://www.inkscape.org/) -->

<svg
   version="1.1"
   id="svg1"
   width="450"
   height="400"
   viewBox="0 0 450 400"
   sodipodi:docname="NEW_MATH_LOGO.pdf"
   inkscape:export-filename="NEW_MATH_LOGO_BLACK.svg"
   inkscape:export-xdpi="1500"
   inkscape:export-ydpi="1500"
   xmlns:inkscape="http://www.inkscape.org/namespaces/inkscape"
   xmlns:sodipodi="http://sodipodi.sourceforge.net/DTD/sodipodi-0.dtd"
   xmlns="http://www.w3.org/2000/svg"
   xmlns:svg="http://www.w3.org/2000/svg">
  <defs
     id="defs1">
    <clipPath
       clipPathUnits="userSpaceOnUse"
       id="clipPath2">
      <path
         d="M -233.47447,-81.54854 V 195.84454 H 164.13257 V -81.54854 Z"
         transform="translate(-2.5000001e-6)"
         id="path2" />
    </clipPath>
    <clipPath
       clipPathUnits="userSpaceOnUse"
       id="clipPath4">
      <path
         d="M -233.47447,-81.54854 V 195.84454 H 164.13257 V -81.54854 Z"
         transform="translate(-2.5000001e-6)"
         id="path4" />
    </clipPath>
    <clipPath
       clipPathUnits="userSpaceOnUse"
       id="clipPath6">
      <path
         d="M -233.47447,-81.54854 V 195.84454 H 164.13257 V -81.54854 Z"
         transform="translate(-2.5000001e-6)"
         id="path6" />
    </clipPath>
    <clipPath
       clipPathUnits="userSpaceOnUse"
       id="clipPath8">
      <path
         d="M -233.47447,-81.54854 V 195.84454 H 164.13257 V -81.54854 Z"
         transform="translate(-2.5000001e-6)"
         id="path8" />
    </clipPath>
    <clipPath
       clipPathUnits="userSpaceOnUse"
       id="clipPath10">
      <path
         d="M -233.47447,-81.54854 V 195.84454 H 164.13257 V -81.54854 Z"
         transform="translate(-2.5000001e-6)"
         id="path10" />
    </clipPath>
    <clipPath
       clipPathUnits="userSpaceOnUse"
       id="clipPath12">
      <path
         d="M -233.47447,-81.54854 V 195.84454 H 164.13257 V -81.54854 Z"
         transform="translate(-2.5000001e-6)"
         id="path12" />
    </clipPath>
    <clipPath
       clipPathUnits="userSpaceOnUse"
       id="clipPath14">
      <path
         d="M -233.47447,-81.54854 V 195.84454 H 164.13257 V -81.54854 Z"
         transform="translate(-2.5000001e-6)"
         id="path14" />
    </clipPath>
    <clipPath
       clipPathUnits="userSpaceOnUse"
       id="clipPath16">
      <path
         d="M -233.47447,-81.54854 V 195.84454 H 164.13257 V -81.54854 Z"
         transform="translate(-2.5000001e-6)"
         id="path16" />
    </clipPath>
    <clipPath
       clipPathUnits="userSpaceOnUse"
       id="clipPath18">
      <path
         d="M -233.47447,-81.54854 V 195.84454 H 164.13257 V -81.54854 Z"
         transform="translate(-2.5000001e-6)"
         id="path18" />
    </clipPath>
    <clipPath
       clipPathUnits="userSpaceOnUse"
       id="clipPath20">
      <path
         d="M -233.47447,-81.54854 V 195.84454 H 164.13257 V -81.54854 Z"
         transform="translate(-2.5000001e-6)"
         id="path20" />
    </clipPath>
    <clipPath
       clipPathUnits="userSpaceOnUse"
       id="clipPath22">
      <path
         d="M -233.47447,-81.54854 V 195.84454 H 164.13257 V -81.54854 Z"
         transform="translate(-2.5000001e-6)"
         id="path22" />
    </clipPath>
    <clipPath
       clipPathUnits="userSpaceOnUse"
       id="clipPath24">
      <path
         d="M -233.47447,-81.54854 V 195.84454 H 164.13257 V -81.54854 Z"
         transform="translate(-2.5000001e-6)"
         id="path24" />
    </clipPath>
    <clipPath
       clipPathUnits="userSpaceOnUse"
       id="clipPath26">
      <path
         d="M -233.47447,-81.54854 V 195.84454 H 164.13257 V -81.54854 Z"
         transform="translate(-2.5000001e-6)"
         id="path26" />
    </clipPath>
    <clipPath
       clipPathUnits="userSpaceOnUse"
       id="clipPath28">
      <path
         d="M -233.47447,-81.54854 V 195.84454 H 164.13257 V -81.54854 Z"
         transform="translate(-2.5000001e-6)"
         id="path28" />
    </clipPath>
  </defs>
  <sodipodi:namedview
     id="namedview1"
     pagecolor="#ffffff"
     bordercolor="#000000"
     borderopacity="0.25"
     inkscape:showpageshadow="2"
     inkscape:pageopacity="0.0"
     inkscape:pagecheckerboard="0"
     inkscape:deskcolor="#d1d1d1"
     showgrid="false">
    <inkscape:page
       x="0"
       y="0"
       inkscape:label="1"
       id="page1"
       width="450"
       height="400"
       margin="0"
       bleed="0" />
  </sodipodi:namedview>
  <g
     id="g1"
     inkscape:groupmode="layer"
     inkscape:label="1">
    <path
       id="path1"
       d="M 114.6498,20.45729 108.44461,-9.51884"
       style="fill:none;stroke:#000000;stroke-width:5.97766;stroke-linecap:round;stroke-linejoin:round;stroke-miterlimit:10;stroke-dasharray:none;stroke-opacity:1"
       transform="matrix(1.3333333,0,0,-1.3333333,276.41821,272.98874)"
       clip-path="url(#clipPath2)" />
    <path
       id="path3"
       d="m 42.77718,38.45392 c 0,47.45996 -38.47283,85.93278 -85.93278,85.93278 -47.45997,0 -85.93278,-38.47282 -85.93278,-85.93278 0,-47.45996 38.47281,-85.93277 85.93278,-85.93277 47.45995,0 85.93278,38.47281 85.93278,85.93277 z"
       style="fill:none;stroke:#000000;stroke-width:5.97766;stroke-linecap:round;stroke-linejoin:round;stroke-miterlimit:10;stroke-dasharray:none;stroke-opacity:1"
       transform="matrix(1.3333333,0,0,-1.3333333,276.41821,272.98874)"
       clip-path="url(#clipPath4)" />
    <path
       id="path5"
       d="M 114.6498,20.45729 -189.07576,126.93561"
       style="fill:none;stroke:#000000;stroke-width:5.97766;stroke-linecap:round;stroke-linejoin:round;stroke-miterlimit:10;stroke-dasharray:none;stroke-opacity:1"
       transform="matrix(1.3333333,0,0,-1.3333333,276.41821,272.98874)"
       clip-path="url(#clipPath6)" />
    <path
       id="path7"
       d="M -189.07576,126.93561 -86.22296,-62.23788"
       style="fill:none;stroke:#000000;stroke-width:5.97766;stroke-linecap:round;stroke-linejoin:round;stroke-miterlimit:10;stroke-dasharray:none;stroke-opacity:1"
       transform="matrix(1.3333333,0,0,-1.3333333,276.41821,272.98874)"
       clip-path="url(#clipPath8)" />
    <path
       id="path9"
       d="M -86.22296,-62.23788 108.44461,-9.51884"
       style="fill:none;stroke:#000000;stroke-width:5.97766;stroke-linecap:round;stroke-linejoin:round;stroke-miterlimit:10;stroke-dasharray:none;stroke-opacity:1"
       transform="matrix(1.3333333,0,0,-1.3333333,276.41821,272.98874)"
       clip-path="url(#clipPath10)" />
    <path
       id="path11"
       d="M 114.6498,20.45729 -189.07576,126.93561"
       style="fill:none;stroke:#000000;stroke-width:5.97766;stroke-linecap:round;stroke-linejoin:round;stroke-miterlimit:10;stroke-dasharray:none;stroke-opacity:1"
       transform="matrix(1.3333333,0,0,-1.3333333,276.41821,272.98874)"
       clip-path="url(#clipPath12)" />
    <path
       id="path13"
       d="m -104.64044,169.02025 -47.45418,-1.43082"
       style="fill:none;stroke:#000000;stroke-width:5.97766;stroke-linecap:round;stroke-linejoin:round;stroke-miterlimit:10;stroke-dasharray:none;stroke-opacity:1"
       transform="matrix(1.3333333,0,0,-1.3333333,276.41821,272.98874)"
       clip-path="url(#clipPath14)" />
    <path
       id="path15"
       d="m -152.09462,167.58943 46.62413,-69.96345"
       style="fill:none;stroke:#000000;stroke-width:5.97766;stroke-linecap:round;stroke-linejoin:round;stroke-miterlimit:10;stroke-dasharray:none;stroke-opacity:1"
       transform="matrix(1.3333333,0,0,-1.3333333,276.41821,272.98874)"
       clip-path="url(#clipPath16)" />
    <path
       id="path17"
       d="m -104.64044,169.02025 -84.43532,-42.08464"
       style="fill:none;stroke:#000000;stroke-width:5.97766;stroke-linecap:round;stroke-linejoin:round;stroke-miterlimit:10;stroke-dasharray:none;stroke-opacity:1"
       transform="matrix(1.3333333,0,0,-1.3333333,276.41821,272.98874)"
       clip-path="url(#clipPath18)" />
    <path
       id="path19"
       d="M 108.44461,-9.51884 -104.64044,169.02025"
       style="fill:none;stroke:#000000;stroke-width:5.97766;stroke-linecap:round;stroke-linejoin:round;stroke-miterlimit:10;stroke-dasharray:none;stroke-opacity:1"
       transform="matrix(1.3333333,0,0,-1.3333333,276.41821,272.98874)"
       clip-path="url(#clipPath20)" />
    <path
       id="path21"
       d="M -118.65164,-2.59305 108.44461,-9.51884"
       style="fill:none;stroke:#000000;stroke-width:5.97766;stroke-linecap:round;stroke-linejoin:round;stroke-miterlimit:10;stroke-dasharray:none;stroke-opacity:1"
       transform="matrix(1.3333333,0,0,-1.3333333,276.41821,272.98874)"
       clip-path="url(#clipPath22)" />
    <path
       id="path23"
       d="M -50.94777,124.03284 -118.65164,-2.59305"
       style="fill:none;stroke:#000000;stroke-width:5.97766;stroke-linecap:round;stroke-linejoin:round;stroke-miterlimit:10;stroke-dasharray:none;stroke-opacity:1"
       transform="matrix(1.3333333,0,0,-1.3333333,276.41821,272.98874)"
       clip-path="url(#clipPath24)" />
    <path
       id="path25"
       d="M 29.69847,-7.11739 -50.94777,124.03284"
       style="fill:none;stroke:#000000;stroke-width:5.97766;stroke-linecap:round;stroke-linejoin:round;stroke-miterlimit:10;stroke-dasharray:none;stroke-opacity:1"
       transform="matrix(1.3333333,0,0,-1.3333333,276.41821,272.98874)"
       clip-path="url(#clipPath26)" />
    <path
       id="path27"
       d="M 42.4657,45.76338 -118.65164,-2.59305"
       style="fill:none;stroke:#000000;stroke-width:5.97766;stroke-linecap:round;stroke-linejoin:round;stroke-miterlimit:10;stroke-dasharray:none;stroke-opacity:1"
       transform="matrix(1.3333333,0,0,-1.3333333,276.41821,272.98874)"
       clip-path="url(#clipPath28)" />
    <path
       style="fill:#014d4e;stroke-width:0.13636;fill-opacity:1"
       d="M 115.63356,105.25192 C 104.23383,88.146632 94.792925,73.973032 94.653759,73.755034 L 94.40073,73.358674 115.3419,62.91779 c 18.64729,-9.297193 20.96907,-10.421017 21.19583,-10.259523 0.14006,0.09975 14.20432,11.870849 31.25392,26.158003 25.23361,21.145164 30.93794,25.9848 30.66958,26.0205 -1.0407,0.13846 -6.03704,1.20294 -8.37493,1.78431 -8.58313,2.13438 -16.07081,4.90602 -24.20396,8.95936 -10.1473,5.05712 -19.23893,11.3473 -27.64947,19.12969 -0.98086,0.90761 -1.80345,1.64843 -1.82796,1.64626 -0.0245,-0.002 -9.37163,-13.99918 -20.77135,-31.10447 z"
       id="path31" />
    <path
       style="fill:#34d399;stroke-width:0.13636;fill-opacity:1"
       d="m 98.111256,125.30543 c -14.962137,-5.24894 -35.273008,-12.37082 -45.135269,-15.8264 -9.86226,-3.45558 -17.981584,-6.31332 -18.042942,-6.35054 -0.09736,-0.059 47.539449,-23.916903 50.875594,-25.479931 l 1.265234,-0.592779 19.222907,28.83387 c 10.5726,15.85862 19.2229,28.86466 19.2229,28.90229 0,0.0376 -0.046,0.0659 -0.10227,0.0627 -0.0563,-0.003 -12.34402,-4.30029 -27.306154,-9.54923 z"
       id="path32" />
    <path
       style="fill:#d1fae5;stroke-width:0.15856;fill-opacity:1"
       d="m 117.11704,264.81094 c -8.19322,-19.34949 -10.67638,-40.45641 -7.22098,-61.37851 3.04301,-18.42516 10.86049,-35.90292 22.65924,-50.65991 2.05553,-2.5709 4.15227,-4.98558 4.41615,-5.08577 0.14571,-0.0553 38.11189,13.15262 38.27447,13.3152 0.0533,0.0533 -56.68696,106.19622 -56.8649,106.37616 -0.0681,0.0689 -0.63693,-1.08631 -1.26398,-2.56717 z"
       id="path33" />
    <path
       style="fill:#007a3d;stroke-width:0.200985;fill-opacity:1"
       d="m 126.80625,269.18581 c 0.12504,-0.32584 56.17634,-105.21803 56.29497,-105.34819 0.0328,-0.036 15.33013,5.28962 33.99412,11.83461 18.66399,6.545 34.44918,12.07532 35.0782,12.28961 l 1.14368,0.38961 11.18558,18.19596 c 6.15208,10.00778 11.10923,18.26124 11.0159,18.34103 -0.17294,0.14786 -148.35446,44.63453 -148.66862,44.63291 -0.0947,-4.9e-4 -0.11446,-0.15148 -0.0438,-0.33554 z"
       id="path34" />
    <path
       style="fill:#6ee7b7;stroke-width:0.0940456;fill-opacity:1"
       d="m 163.22863,350.76033 c -0.49334,-0.87039 -20.72441,-38.10191 -20.77447,-38.23157 -0.0267,-0.0691 0.68298,0.47428 1.57706,1.20759 6.52319,5.35017 14.10273,10.24164 21.91216,14.14103 12.32781,6.1555 25.46931,10.0669 39.16998,11.65844 0.97878,0.1137 1.01677,0.12599 0.70534,0.22804 -0.18104,0.0593 -9.57619,2.60941 -20.87811,5.66686 -11.30193,3.05745 -20.74844,5.61711 -20.99225,5.68813 l -0.4433,0.12913 z"
       id="path36" />
    <path
       style="fill:#a7f3d0;stroke-width:0.0940456;fill-opacity:1"
       d="m 302.08791,252.12086 c -7.59611,-12.36021 -13.79606,-22.48564 -13.77767,-22.50096 0.11477,-0.0956 40.93143,-12.27679 40.97874,-12.22955 0.10902,0.10884 0.11998,7.03462 0.0147,9.30646 -0.64484,13.91799 -3.70602,26.97061 -9.32974,39.78127 -0.80885,1.84254 -3.64861,7.58733 -3.91195,7.91381 -0.15992,0.19827 -0.42248,-0.22018 -13.9741,-22.27103 z"
       id="path37" />
    <path
       style="fill:#065f45;stroke-width:0.142498;fill-opacity:1"
       d="m 392.65444,280.77262 c -8.42522,-0.26517 -27.48422,-0.85336 -42.35334,-1.30709 -14.86912,-0.45372 -27.07085,-0.86104 -27.11496,-0.90515 -0.0441,-0.0441 0.52734,-1.25907 1.2699,-2.69991 8.13647,-15.78788 12.51612,-33.06584 13.00242,-51.29516 l 0.0935,-3.50344 35.63804,29.84906 c 19.60093,16.41699 35.76452,29.96875 35.91909,30.11503 0.27638,0.26154 0.26929,0.26564 -0.42749,0.24737 -0.3897,-0.0102 -7.6019,-0.23554 -16.02712,-0.50071 z"
       id="path38" />
    <path
       style="fill:#022c22;stroke-width:0.142498"
       d="m 285.63812,191.04876 -26.86096,-9.42723 -16.72156,-27.19535 c -9.19685,-14.95744 -16.69792,-27.21898 -16.66904,-27.24786 0.0487,-0.0487 86.62708,72.42965 87.25105,73.04143 0.21134,0.20721 0.22901,0.27316 0.0713,0.2659 -0.11538,-0.005 -12.29722,-4.25191 -27.07074,-9.43689 z"
       id="path39" />
    <path
       style="fill:#14532d;fill-opacity:1;stroke-width:0.151463"
       d="m 215.22953,332.1405 c -3.78248,-0.1075 -5.82572,-0.26283 -9.84512,-0.74841 -29.67913,-3.58549 -56.79556,-19.29565 -74.90317,-43.39586 -1.53248,-2.03965 -5.11065,-7.21083 -5.02665,-7.26454 0.0305,-0.0195 5.64583,0.14994 25.10006,0.75733 20.72775,0.64714 156.74144,4.77686 157.32774,4.77686 h 0.67441 l -0.57706,0.79518 c -8.97407,12.36621 -21.52567,23.46077 -35.2328,31.14285 -15.16595,8.49966 -33.03901,13.50041 -49.64131,13.88928 -1.79105,0.0419 -3.49502,0.0925 -3.78659,0.11237 -0.29156,0.0199 -2.13184,-0.009 -4.08951,-0.0651 z"
       id="path46" />
  </g>
</svg>
